# xmcd CD database file
#
# Track frame offsets:
#	150
#	13768
#	23505
#	37726
#	50363
#	61213
#	73318
#	83588
#	95051
#	107727
#	120781
#	132756
#	145113
#	157821
#	170608
#	180999
#	193250
#	205197
#	217166
#	229222
#	239672
#	251045
#	262095
#	275416
#	287759
#
# Disc length: 4004 seconds
#
# Revision: 0
# Processed by: cddbd v1.5.2PL0 Copyright (c) Steve Scherf et al.
# Submitted via: CDex 1.79
#
DISCID=670fa219
DTITLE=Lightnin' Hopkins - King of the Texas Blues
DYEAR=1900
DGENRE=Blues
TTITLE0=Katie Mae
TTITLE1=Feel So Bad
TTITLE2=That Mean Old Twister
TTITLE3=Rocky Mountain Blues
TTITLE4=Short Haired Woman
TTITLE5=Big Mama Jump
TTITLE6=Down Baby
TTITLE7=Let Me Play With Your Poodle
TTITLE8=Fast Mail Rambler
TTITLE9=Thinkin' and Worryin'
TTITLE10=Can't Get That Woman Off My Mind
TTITLE11=Woman, Woman (Change Your Way)
TTITLE12=Picture on the Wall
TTITLE13=You're Not Going To Worry My Life Anymore
TTITLE14=You're Gonna Miss Me
TTITLE15=Sugar on My Mind
TTITLE16=Nightmare Blues
TTITLE17=Someday Baby
TTITLE18=Come Back Baby
TTITLE19=Lightnin's Boogie
TTITLE20=Baby You're Not Goin' To Make A Fool Out Of Me
TTITLE21=Daddy Will Be Home One Day
TTITLE22=Moon Rise Blues
TTITLE23=Howling Wolf
TTITLE24=Morning Blues
EXTD=
EXTT0=
EXTT1=
EXTT2=
EXTT3=
EXTT4=
EXTT5=
EXTT6=
EXTT7=
EXTT8=
EXTT9=
EXTT10=
EXTT11=
EXTT12=
EXTT13=
EXTT14=
EXTT15=
EXTT16=
EXTT17=
EXTT18=
EXTT19=
EXTT20=
EXTT21=
EXTT22=
EXTT23=
EXTT24=
PLAYORDER=
